<?xml version="1.0" encoding="UTF-8"?>
<svg xmlns="http://www.w3.org/2000/svg" xmlns:xlink="http://www.w3.org/1999/xlink" id="Warstwa_1" data-name="Warstwa 1" viewBox="0 0 283.46 71.39">
  <defs>
    <style>
      .cls-1 {
        fill: #fff;
      }

      .cls-2 {
        clip-rule: evenodd;
      }

      .cls-2, .cls-3, .cls-4 {
        fill: url(#Gradient_bez_nazwy_7);
      }

      .cls-5 {
        clip-path: url(#clippath);
      }

      .cls-4 {
        fill-rule: evenodd;
      }
    </style>
    <linearGradient id="Gradient_bez_nazwy_7" data-name="Gradient bez nazwy 7" x1="10.8" y1="35.7" x2="60.59" y2="35.7" gradientUnits="userSpaceOnUse">
      <stop offset="0" stop-color="#2b4c9b"></stop>
      <stop offset="1" stop-color="#2babe3"></stop>
    </linearGradient>
    <clipPath id="clippath">
      <polygon class="cls-2" points="23.96 35.7 10.8 48.86 10.8 60.59 22.54 60.59 35.7 47.43 48.86 60.59 60.59 60.59 60.59 48.86 47.43 35.7 41.56 29.83 60.59 29.83 60.59 10.8 41.56 10.8 41.56 29.83 35.7 23.96 22.54 10.8 10.8 10.8 10.8 22.54 23.96 35.7"></polygon>
    </clipPath>
  </defs>
  <rect class="cls-1" width="71.39" height="71.39"></rect>
  <g>
    <polygon class="cls-4" points="23.96 35.7 10.8 48.86 10.8 60.59 22.54 60.59 35.7 47.43 48.86 60.59 60.59 60.59 60.59 48.86 47.43 35.7 41.56 29.83 60.59 29.83 60.59 10.8 41.56 10.8 41.56 29.83 35.7 23.96 22.54 10.8 10.8 10.8 10.8 22.54 23.96 35.7"></polygon>
    <g class="cls-5">
      <rect class="cls-3" x="10.8" y="10.8" width="49.79" height="49.79"></rect>
    </g>
  </g>
  <g>
    <path class="cls-1" d="M91.38,62.6c-.7-.72-1.05-1.74-1.05-3.08v-5.34h1.34v5.28c0,2.01.88,3.02,2.64,3.02.86,0,1.52-.25,1.97-.74.46-.5.68-1.25.68-2.27v-5.28h1.3v5.34c0,1.35-.35,2.38-1.05,3.09s-1.67,1.07-2.92,1.07-2.23-.36-2.92-1.07Z"></path>
    <path class="cls-1" d="M115.34,59.53c.31.4.47.9.47,1.51,0,.81-.31,1.44-.92,1.88-.61.44-1.5.66-2.68.66h-4.48v-9.39h4.21c1.07,0,1.9.21,2.49.64.59.43.88,1.02.88,1.78,0,.49-.11.92-.34,1.27-.23.36-.53.63-.92.82.55.15.97.43,1.29.82ZM109.07,55.27v3h2.75c.69,0,1.22-.13,1.59-.38.37-.25.56-.63.56-1.12s-.19-.87-.56-1.12c-.37-.25-.9-.38-1.59-.38h-2.75ZM113.87,62.11c.38-.25.58-.64.58-1.18,0-1.05-.76-1.57-2.29-1.57h-3.09v3.13h3.09c.76,0,1.33-.13,1.72-.38Z"></path>
    <path class="cls-1" d="M131.4,62.4v1.17h-6.81v-9.39h6.63v1.17h-5.28v2.88h4.71v1.14h-4.71v3.03h5.47Z"></path>
    <path class="cls-1" d="M147.3,62.4v1.17h-7.85v-.91l5.9-7.31h-5.81v-1.17h7.58v.91l-5.87,7.31h6.05Z"></path>
    <path class="cls-1" d="M162.33,55.05c.7.58,1.05,1.38,1.05,2.4s-.35,1.82-1.05,2.4c-.7.58-1.65.87-2.87.87h-2.32v2.84h-1.34v-9.39h3.66c1.22,0,2.17.29,2.87.87ZM161.37,59.02c.45-.36.67-.88.67-1.56s-.22-1.2-.67-1.56c-.45-.36-1.1-.54-1.94-.54h-2.28v4.21h2.28c.85,0,1.5-.18,1.94-.54Z"></path>
    <path class="cls-1" d="M172.06,54.18h1.34v9.39h-1.34v-9.39Z"></path>
    <path class="cls-1" d="M189.73,62.4v1.17h-6.81v-9.39h6.63v1.17h-5.28v2.88h4.71v1.14h-4.71v3.03h5.47Z"></path>
    <path class="cls-1" d="M200.23,63.05c-.76-.42-1.35-.99-1.78-1.72-.43-.73-.64-1.55-.64-2.46s.21-1.73.64-2.46c.43-.73,1.02-1.3,1.78-1.72.76-.42,1.61-.62,2.55-.62.73,0,1.4.12,2.01.37.61.25,1.13.61,1.56,1.09l-.87.85c-.71-.74-1.59-1.11-2.64-1.11-.7,0-1.33.16-1.89.47s-1,.74-1.32,1.29c-.32.55-.48,1.16-.48,1.84s.16,1.29.48,1.84c.32.55.76.98,1.32,1.29s1.19.47,1.89.47c1.05,0,1.93-.38,2.64-1.13l.87.85c-.43.48-.95.85-1.56,1.1-.61.25-1.29.38-2.02.38-.94,0-1.79-.21-2.54-.62Z"></path>
    <path class="cls-1" d="M221.99,62.4v1.17h-7.85v-.91l5.9-7.31h-5.81v-1.17h7.58v.91l-5.87,7.31h6.05Z"></path>
    <path class="cls-1" d="M237.31,62.4v1.17h-6.81v-9.39h6.63v1.17h-5.28v2.88h4.71v1.14h-4.71v3.03h5.47Z"></path>
    <path class="cls-1" d="M254.26,54.18v9.39h-1.1l-5.63-7v7h-1.34v-9.39h1.1l5.63,7v-7h1.34Z"></path>
    <path class="cls-1" d="M263.78,54.18h1.34v9.39h-1.34v-9.39Z"></path>
    <path class="cls-1" d="M280.63,61.22h-4.99l-1.03,2.35h-1.38l4.25-9.39h1.33l4.27,9.39h-1.41l-1.03-2.35ZM280.16,60.15l-2.03-4.6-2.03,4.6h4.05Z"></path>
    <g>
      <polygon class="cls-1" points="114.85 41.11 107.94 30.76 101.12 41.11 90.34 41.11 102.5 24.22 90.86 7.72 101.5 7.72 108.18 17.35 114.76 7.72 124.97 7.72 113.33 23.84 125.73 41.11 114.85 41.11"></polygon>
      <polygon class="cls-1" points="163.09 33.81 163.09 41.11 136.28 41.11 136.28 7.72 162.47 7.72 162.47 15.02 145.63 15.02 145.63 20.64 160.46 20.64 160.46 27.7 145.63 27.7 145.63 33.81 163.09 33.81"></polygon>
      <polygon class="cls-1" points="176.29 7.72 185.73 7.72 185.73 33.62 201.66 33.62 201.66 41.11 176.29 41.11 176.29 7.72"></polygon>
      <polygon class="cls-1" points="272.59 41.11 265.67 30.76 258.85 41.11 248.07 41.11 260.23 24.22 248.59 7.72 259.23 7.72 265.91 17.35 272.49 7.72 282.7 7.72 271.06 23.84 283.46 41.11 272.59 41.11"></polygon>
      <path class="cls-1" d="M239.08,22.9c.57-5.79-3.66-10.94-9.45-11.51-4.33-.42-8.3,1.83-10.26,5.42,1.95-1.98,4.75-3.1,7.74-2.81,5.24.51,9.08,5.18,8.56,10.43-.36,3.65-2.73,6.61-5.91,7.91,4.84-.53,8.82-4.39,9.32-9.44Z"></path>
      <path class="cls-1" d="M228.38,36.3c-8.01,0-14.5-6.49-14.5-14.5,0-6.64,4.47-12.24,10.57-13.96-8.51.75-15.18,7.89-15.18,16.59,0,9.2,7.46,16.66,16.66,16.66s16.45-7.26,16.65-16.28c-1.39,6.56-7.21,11.49-14.19,11.49Z"></path>
    </g>
  </g>
</svg>
